<svg width="16px" height="16px" viewBox="0 0 16 16" version="1.1">
<g>
<path style=" stroke:none;fill-rule:nonzero;fill:rgb(0, 0, 0);fill-opacity:1;" d="M 5.429688 0.75 C 5.429688 0.335938 5.046875 0 4.570312 0 C 4.097656 0 3.714844 0.335938 3.714844 0.75 L 3.714844 2 L 2.285156 2 C 1.023438 2 0 2.898438 0 4 L 0 14 C 0 15.101562 1.023438 16 2.285156 16 L 13.714844 16 C 14.976562 16 16 15.101562 16 14 L 16 4 C 16 2.898438 14.976562 2 13.714844 2 L 12.285156 2 L 12.285156 0.75 C 12.285156 0.335938 11.902344 0 11.429688 0 C 10.953125 0 10.570312 0.335938 10.570312 0.75 L 10.570312 2 L 5.429688 2 Z M 1.714844 6 L 14.285156 6 L 14.285156 14 C 14.285156 14.273438 14.027344 14.5 13.714844 14.5 L 2.285156 14.5 C 1.972656 14.5 1.714844 14.273438 1.714844 14 Z M 1.714844 6 "/>
</g>
</svg>