<svg width="16px" height="16px" viewBox="0 0 16 16" version="1.1">
<g>
<path style=" stroke:none;fill-rule:nonzero;fill:rgb(0%,0%,0%);fill-opacity:1;" d="M 14.355469 4.742188 C 14.367188 4.878906 14.367188 5.027344 14.367188 5.164062 C 14.367188 9.5 11.066406 14.496094 5.035156 14.496094 C 3.175781 14.496094 1.449219 13.960938 0 13.027344 C 0.261719 13.058594 0.519531 13.066406 0.789062 13.066406 C 2.324219 13.066406 3.730469 12.542969 4.863281 11.664062 C 3.417969 11.632812 2.214844 10.691406 1.792969 9.386719 C 2 9.417969 2.207031 9.441406 2.414062 9.441406 C 2.710938 9.441406 3.003906 9.402344 3.277344 9.324219 C 1.777344 9.027344 0.652344 7.699219 0.652344 6.105469 L 0.652344 6.066406 C 1.089844 6.3125 1.59375 6.464844 2.128906 6.480469 C 1.246094 5.898438 0.667969 4.886719 0.667969 3.753906 C 0.667969 3.144531 0.832031 2.585938 1.117188 2.097656 C 2.730469 4.089844 5.15625 5.386719 7.878906 5.527344 C 7.832031 5.285156 7.800781 5.03125 7.800781 4.777344 C 7.800781 2.972656 9.257812 1.5 11.074219 1.5 C 12.019531 1.5 12.871094 1.898438 13.472656 2.535156 C 14.214844 2.394531 14.925781 2.121094 15.554688 1.746094 C 15.308594 2.503906 14.789062 3.144531 14.113281 3.550781 C 14.773438 3.476562 15.410156 3.292969 16 3.042969 C 15.554688 3.691406 14.996094 4.273438 14.355469 4.742188 Z M 14.355469 4.742188 "/>
</g>
</svg>
